<?xml version="1.0" encoding="UTF-8" standalone="no"?>
<svg width="209px" height="55px" viewBox="0 0 209 55" version="1.1" xmlns="http://www.w3.org/2000/svg" xmlns:xlink="http://www.w3.org/1999/xlink">
    <!-- Generator: Sketch 39.1 (31720) - http://www.bohemiancoding.com/sketch -->
    <title>Logo sort</title>
    <desc>Created with Sketch.</desc>
    <defs>
        <polygon id="path-1" points="0.483141314 50.8041237 41.7288888 50.8041237 41.7288888 0.0551340206 0.483141314 0.0551340206"></polygon>
        <polygon id="path-3" points="0 0.039257732 0 9.07661856 9.2968691 9.07661856 9.2968691 0.039257732 2.34401119e-20 0.039257732"></polygon>
    </defs>
    <g id="Symbols" stroke="none" stroke-width="1" fill="none" fill-rule="evenodd">
        <g id="New-header" transform="translate(0.000000, -2.000000)">
            <g id="Group" transform="translate(0.000000, -1.000000)">
                <g id="Logo-sort" transform="translate(0.000000, 3.000000)">
                    <path d="M62.8242169,20.6205856 C61.2825891,20.6205856 59.3558425,20.2118433 58.2679399,19.6218227 L58.2679399,15.5124619 L58.3578778,15.5124619 C59.7859302,18.1918021 61.2145591,19.6899464 62.9153079,19.6899464 C64.4113902,19.6899464 65.5673228,18.5549361 65.5673228,17.2149773 C65.5673228,13.8330392 58.2223944,13.0380701 58.2223944,8.63427629 C58.2223944,6.02363711 60.806956,4.29802887 63.6405763,4.29802887 C65.2727186,4.29802887 66.8143464,4.86553402 67.6531903,5.2067299 L67.6531903,8.38487423 L67.5620993,8.38487423 C66.2476223,6.00054433 64.7740244,5.2067299 63.3684565,5.2067299 C62.0078575,5.2067299 61.1240447,6.27361649 61.1240447,7.45365773 C61.1240447,10.8136577 68.4689731,11.3130392 68.4689731,16.0349361 C68.4689731,18.6680907 66.2020769,20.6205856 62.8242169,20.6205856" id="Fill-1" fill="#CF0A2C"></path>
                    <path d="M110.030891,5.41063918 L108.398748,5.41063918 L108.398748,12.5844124 L109.237592,12.5844124 C111.028855,12.5844124 113.023632,11.6762887 113.023632,8.88379381 C113.023632,6.77253608 111.686094,5.41063918 110.030891,5.41063918 L110.030891,5.41063918 Z M110.008983,4.61624742 C114.248171,4.61624742 116.447037,5.95505155 116.447037,8.77063918 C116.447037,11.1087835 114.179564,12.2894021 112.366393,12.7206598 L116.129372,17.9413608 C117.33085,19.5988454 117.671,19.9394639 118.736418,20.188866 L118.736418,20.2800825 L116.787187,20.2800825 C113.771385,20.2800825 113.635901,20.1663505 112.320848,18.0781856 L109.350591,13.3106804 L108.398748,13.3106804 L108.398748,17.1475464 C108.398748,18.8956701 108.670868,19.6444536 110.16695,20.188866 L110.16695,20.2800825 L103.230202,20.2800825 L103.230202,20.188866 C104.748769,19.6444536 104.998404,18.8956701 104.998404,17.1475464 L104.998404,7.70375258 C104.998404,5.95505155 104.748769,5.25129897 103.230202,4.7068866 L103.230202,4.61624742 L110.008983,4.61624742 Z" id="Fill-3" fill="#CF0A2C"></path>
                    <path d="M139.843459,17.1924041 C139.843459,18.9411052 140.115579,19.6448577 141.611661,20.1892701 L141.611661,20.2799093 L134.674336,20.2799093 L134.674336,20.1892701 C136.19348,19.6448577 136.442538,18.9411052 136.442538,17.1924041 L136.442538,7.70357938 C136.442538,5.95545567 136.19348,5.25170309 134.674336,4.7067134 L134.674336,4.61607423 L141.611661,4.61607423 L141.611661,4.7067134 C140.115579,5.25170309 139.843459,5.95545567 139.843459,7.70357938 L139.843459,17.1924041 Z" id="Fill-5" fill="#CF0A2C"></path>
                    <path d="M159.158661,20.3937567 L157.685063,20.3937567 L146.758185,7.36307629 L146.758185,15.1949938 C146.758185,18.8500041 147.233818,19.6218804 148.684355,20.1893856 L148.684355,20.2800247 L143.561354,20.2800247 L143.561354,20.1893856 C145.012467,19.6218804 145.4881,18.8725196 145.4881,15.1949938 L145.4881,7.31746804 C145.4881,6.27367423 144.989983,5.25124124 143.334203,4.70682887 L143.334203,4.61618969 L148.480841,4.61618969 L157.888576,15.6037361 L157.888576,9.65561237 C157.888576,6.02311753 157.412367,5.29684948 155.96183,4.70682887 L155.96183,4.61618969 L161.085407,4.61618969 L161.085407,4.70682887 C159.634294,5.29684948 159.158661,5.9780866 159.158661,9.65561237 L159.158661,20.3937567 Z" id="Fill-7" fill="#CF0A2C"></path>
                    <path d="M191.960858,4.61601649 L191.960858,8.38475876 L191.847859,8.38475876 C190.419806,6.04603711 189.875567,5.52414021 188.061819,5.52414021 L185.930983,5.52414021 L185.930983,11.7666969 L188.152333,11.7666969 C189.354388,11.7666969 189.988566,11.4491711 190.827986,10.1553979 L190.940985,10.1553979 L190.940985,14.2641814 L190.827986,14.2641814 C189.988566,12.9929237 189.331327,12.6979134 188.152333,12.6979134 L185.930983,12.6979134 L185.930983,19.3717278 L187.857729,19.3717278 C190.351776,19.3717278 190.759956,18.8954392 192.958822,16.1479753 L193.071821,16.1479753 L192.618673,20.2798515 L180.76186,20.2798515 L180.76186,20.1892124 C182.281003,19.6448 182.530062,18.8954392 182.530062,17.1473155 L182.530062,7.70352165 C182.530062,5.95539794 182.281003,5.25164536 180.76186,4.70723299 L180.76186,4.61601649 L191.960858,4.61601649 Z" id="Fill-9" fill="#CF0A2C"></path>
                    <g id="Group-13" transform="translate(194.288923, 4.244338)" fill="#CF0A2C">
                        <path d="M13.768051,0.371620619 L13.74499,0.371620619 L11.3426104,0.371620619 L2.54599203,0.371620619 L0.415732174,0.371620619 L0.143612376,0.371620619 L0.143612376,4.14036289 L0.256611275,4.14036289 C1.68466369,1.80164124 2.22890328,1.27974433 4.04265091,1.27974433 L4.54134503,1.27974433 L5.24470553,1.27974433 L5.24470553,12.9029196 C5.24470553,14.6510433 4.9950702,15.4004041 3.47592684,15.9448165 L3.47592684,16.0354557 L10.4132521,16.0354557 L10.4132521,15.9448165 C8.91716974,15.4004041 8.64504994,14.6510433 8.64504994,12.9029196 L8.64504994,1.27974433 L9.61995371,1.27974433 L9.84595151,1.27974433 C11.6596991,1.27974433 12.2039387,1.80164124 13.6319911,4.14036289 L13.74499,4.14036289 L13.74499,0.381435052 C13.7594032,0.375084536 13.768051,0.371620619 13.768051,0.371620619" id="Fill-11"></path>
                    </g>
                    <path d="M132.45189,4.61595876 L132.428829,4.61595876 L130.026449,4.61595876 L121.229831,4.61595876 L119.099571,4.61595876 L118.827451,4.61595876 L118.827451,8.38470103 L118.94045,8.38470103 C120.368503,6.04597938 120.912742,5.52408247 122.72649,5.52408247 L123.225184,5.52408247 L123.928544,5.52408247 L123.928544,17.1472577 C123.928544,18.8953814 123.678909,19.6447423 122.159766,20.1891546 L122.159766,20.2797938 L129.097091,20.2797938 L129.097091,20.1891546 C127.601009,19.6447423 127.328889,18.8953814 127.328889,17.1472577 L127.328889,5.52408247 L128.303793,5.52408247 L128.52979,5.52408247 C130.343538,5.52408247 130.887778,6.04597938 132.31583,8.38470103 L132.428829,8.38470103 L132.428829,4.6257732 C132.443242,4.61942268 132.45189,4.61595876 132.45189,4.61595876" id="Fill-14" fill="#CF0A2C"></path>
                    <path d="M83.6649613,4.61595876 L83.6419003,4.61595876 L81.2395206,4.61595876 L72.4429023,4.61595876 L70.3126424,4.61595876 L70.0405226,4.61595876 L70.0405226,8.38470103 L70.1535215,8.38470103 C71.5815739,6.04597938 72.1258135,5.52408247 73.9395612,5.52408247 L74.4382553,5.52408247 L75.1416158,5.52408247 L75.1416158,17.1472577 C75.1416158,18.8953814 74.8919804,19.6447423 73.3728371,20.1891546 L73.3728371,20.2797938 L80.3101623,20.2797938 L80.3101623,20.1891546 C78.8135035,19.6447423 78.5419602,18.8953814 78.5419602,17.1472577 L78.5419602,5.52408247 L79.516864,5.52408247 L79.7428617,5.52408247 C81.5566094,5.52408247 82.100849,6.04597938 83.5289014,8.38470103 L83.6419003,8.38470103 L83.6419003,4.6257732 C83.6563134,4.61942268 83.6649613,4.61595876 83.6649613,4.61595876" id="Fill-16" fill="#CF0A2C"></path>
                    <path d="M98.1484222,12.4710845 C98.1484222,8.31669278 96.3992454,5.20667216 93.2468067,5.20667216 C90.094368,5.20667216 88.3670991,8.31669278 88.3670991,12.4710845 C88.3670991,16.5567753 90.1606684,19.6898887 93.2468067,19.6898887 C96.3335215,19.6898887 98.1484222,16.5567753 98.1484222,12.4710845 M84.6871401,12.4710845 C84.6871401,7.54481649 89.1534792,4.29854845 93.2468067,4.29854845 C97.3401342,4.29854845 101.827805,7.54481649 101.827805,12.4710845 C101.827805,17.5105072 97.2963183,20.6205278 93.2468067,20.6205278 C89.0001236,20.6205278 84.6871401,17.5105072 84.6871401,12.4710845" id="Fill-18" fill="#CF0A2C"></path>
                    <path d="M177.992464,19.6135093 C177.992464,19.6135093 175.085625,20.5989938 171.576894,20.5989938 C167.22413,20.5989938 162.803337,17.8070763 162.803337,12.5401897 C162.803337,7.02390103 168.221518,4.27701443 172.279101,4.27701443 C174.523513,4.27701443 176.699895,4.82200412 177.5618,5.18571546 L177.5618,8.72641649 L177.470709,8.72641649 C175.974627,6.29705567 174.138394,5.20823093 172.189163,5.20823093 C168.946787,5.20823093 166.430832,7.90950928 166.430832,12.2676948 C166.430832,17.0577155 169.082847,19.5546227 172.415738,19.5546227 C173.322035,19.5546227 174.432999,19.3052206 174.841178,19.1689732 L174.841178,15.4914474 C174.841178,14.038334 174.569059,13.2889732 173.118522,12.7445608 L173.118522,12.6539216 L179.374971,12.6539216 L179.374971,12.7445608 C178.219038,13.2664577 177.992464,13.6295918 177.992464,15.4683546 L177.992464,19.6135093 Z" id="Fill-20" fill="#CF0A2C"></path>
                    <path d="M19.7429255,9.56139381 C20.4093884,9.40667216 21.0233875,9.36972371 21.5624384,9.45805361 C22.1735549,9.5579299 22.7114527,9.97475464 22.7114527,10.5976825 C22.7114527,10.6606103 22.7045344,10.7212289 22.6970396,10.7812701 C22.1406929,10.3107546 21.0435659,9.84543505 19.6697068,10.1283216 C19.4465916,10.1745072 19.2494201,10.2270433 19.0678147,10.2836206 C19.1577526,10.0238268 19.351465,9.65665155 19.7429255,9.56139381 L19.7429255,9.56139381 Z M21.530153,6.46696082 C22.2398552,6.46696082 22.8901754,6.63149691 23.399247,6.95479588 L21.5180459,7.83289897 L21.530153,6.46696082 Z M16.2047916,11.7707959 C16.249184,11.7719505 16.2924234,11.7725278 16.3350862,11.7725278 C17.206792,11.7725278 17.712981,11.5306309 18.2468431,11.2754557 C18.6665533,11.0745485 19.1006766,10.8672907 19.7919301,10.7252701 C21.2326661,10.4291052 22.200075,11.0866722 22.4514399,11.388033 C22.258304,11.6281979 21.9613937,11.7910021 21.5560966,11.8239093 C21.5520609,11.8239093 20.5102802,11.960734 19.6045595,11.696899 C19.6045595,11.696899 19.5907229,11.6922804 19.5722741,11.6865072 L19.5745802,11.6853526 C19.3531946,11.6201155 19.1156663,11.3545485 18.9980552,11.0693526 C18.9980552,11.0693526 18.5858398,11.4451876 18.4953254,11.9676619 C18.4837949,12.0005691 18.473994,12.0346309 18.4693818,12.072734 C18.4019283,13.0149196 19.0113153,13.4860124 20.0559786,13.7215588 C20.8089202,13.8676206 21.2735993,13.8220124 21.6800495,13.7359918 C21.7803648,13.7123216 21.8806802,13.6886515 21.9827251,13.6667134 C22.0121279,13.6592082 22.0409541,13.6540124 22.0703569,13.6465072 C22.0761221,13.6453526 22.0813109,13.6436206 22.0870761,13.642466 C22.1049484,13.6372701 22.1216676,13.6320742 22.1395399,13.6268784 C22.7131823,13.4542598 23.2395496,13.1696412 23.6932747,12.7984247 C24.9028242,11.7298062 25.0671338,10.1277443 25.0671338,9.34258969 L25.0671338,4.64436289 L22.0778517,4.64436289 L20.2473848,5.49821856 L20.2381604,5.49821856 L20.2381604,6.26894021 L17.6928026,7.45706392 L17.6945322,7.46110515 L17.6945322,8.98696082 L17.6945322,8.9892701 C17.6945322,9.40551753 18.0323758,9.74613608 18.4474738,9.76691959 C18.4878306,9.76922887 18.5281873,9.77211546 18.5679675,9.77500206 C18.6377271,9.97417732 18.7322772,10.1681567 18.8539239,10.3540536 C18.5155038,10.4735588 18.2393483,10.604033 17.9851008,10.7252701 C17.4500856,10.9816 17.0269162,11.1801979 16.2209343,11.1617237 C15.8980803,11.1530639 15.6340318,11.095332 15.4374368,10.9937237 C15.6720825,10.8811464 15.8352391,10.6432907 15.8352391,10.3650227 C15.8352391,9.97879588 15.522186,9.66531134 15.1364908,9.66531134 C14.7525251,9.66531134 14.4417782,9.97533196 14.438319,10.3592495 L14.4331303,10.3586722 C14.4290946,10.407167 14.404304,10.840734 14.7496425,11.2263835 C15.0569303,11.5698887 15.5469766,11.7534763 16.2047916,11.7707959 L16.2047916,11.7707959 Z" id="Fill-22" fill="#CF0A2C"></path>
                    <path d="M30.6289281,4.03500206 C30.6519891,2.77875464 31.1639433,1.64201237 31.9866444,0.812404124 L31.9428285,0.770259794 C31.5928779,0.770259794 30.1636724,0.832610309 29.5836883,1.81116701 L29.5836883,1.81289897 C29.7024524,1.96473402 29.773365,2.15409485 29.773365,2.36077526 C29.773365,2.85207423 29.3761393,3.25157938 28.8837869,3.25157938 C28.3931641,3.25157938 27.9942089,2.85207423 27.9942089,2.36077526 C27.9942089,2.12696082 28.0835702,1.91508454 28.2294311,1.75632165 C27.9227198,0.903620619 27.166319,0.218919588 26.6883797,0.000115463918 L26.6814614,0.000115463918 C26.2035222,0.218919588 25.4471214,0.903620619 25.1404101,1.75632165 C25.286271,1.91508454 25.3756323,2.12696082 25.3756323,2.36077526 C25.3756323,2.85207423 24.9784066,3.25157938 24.4860543,3.25157938 C23.9954315,3.25157938 23.5964762,2.85207423 23.5964762,2.36077526 C23.5964762,2.15409485 23.6673888,1.96473402 23.7861529,1.81289897 L23.7861529,1.81116701 C23.1260318,0.69174433 21.3503348,0.772569072 21.3503348,0.772569072 L21.3503348,0.77603299 C22.1914848,1.60968247 22.7178521,2.76085773 22.7409131,4.03500206 L30.6289281,4.03500206 Z" id="Fill-24" fill="#CF0A2C"></path>
                    <path d="M22.9880694,16.2685773 L23.0036355,16.0278351 L23.2411638,15.988 C25.4521372,15.6150515 27.6832889,13.4905155 27.6832889,9.58494845 L27.6896307,4.64424742 L25.6758289,4.64424742 L25.6758289,9.34247423 C25.6758289,11.8717113 24.4057443,13.6585155 22.1918884,14.2462268 L22.1480725,14.2577732 C17.5860302,15.2403711 14.8509956,17.7418969 13.994856,21.698268 L21.7623772,18.0698144 L21.7623772,18.0698144 C22.449595,17.7378557 22.9211925,17.3042887 22.9880694,16.2685773" id="Fill-26" fill="#CF0A2C"></path>
                    <g id="Group-30" transform="translate(3.459150, 4.244338)">
                        <mask id="mask-2" fill="white">
                            <use xlink:href="#path-1"></use>
                        </mask>
                        <g id="Clip-29"></g>
                        <path d="M41.580251,21.3322474 C41.580251,18.6938969 40.5742148,16.1941031 38.7506663,14.2976082 L33.392443,8.66874227 C32.757689,7.96152577 32.4083148,7.04762887 32.4083148,6.09505155 C32.4083148,3.97051546 34.1344307,2.24202062 36.2560426,2.24202062 L36.2560426,2.2414433 C36.5097136,2.23971134 36.7697264,2.2651134 37.0170556,2.32804124 C37.1098762,2.34997938 37.2003906,2.37826804 37.2868693,2.41348454 C37.2885989,2.41463918 37.2903285,2.41521649 37.292058,2.41579381 C37.3122364,2.42387629 37.3312617,2.43369072 37.3508636,2.44235052 C37.4373423,2.48045361 37.521515,2.52317526 37.6004989,2.5745567 C38.0426936,2.86090722 38.3217317,3.31698969 38.3961034,3.82560825 C38.4018687,3.86313402 38.4076339,3.90008247 38.4110931,3.93818557 C38.4133992,3.96762887 38.4145522,3.99707216 38.4157053,4.02651546 C38.4162818,4.05191753 38.4191644,4.07674227 38.4191644,4.10272165 C38.4191644,4.12639175 38.4168583,4.14948454 38.4157053,4.17257732 C38.4151287,4.18758763 38.4168583,4.20202062 38.4157053,4.21703093 C38.4151287,4.23030928 38.4128226,4.24301031 38.4116696,4.25628866 C38.4093635,4.28226804 38.4064809,4.30824742 38.4030217,4.33364948 C38.3984095,4.37348454 38.3926443,4.41216495 38.3851494,4.45084536 C38.3828433,4.46412371 38.3799607,4.47740206 38.3770781,4.49068041 C38.2790688,4.95946392 38.0115612,5.35030928 37.6281721,5.60663918 C37.6201008,5.61241237 37.6120294,5.61818557 37.6033815,5.62338144 C37.578591,5.63954639 37.5538004,5.6545567 37.5278568,5.66956701 C37.2897519,5.81158763 37.0170556,5.90107216 36.7247575,5.92127835 C36.6590336,5.92762887 36.5921567,5.93109278 36.5241268,5.93109278 C35.999489,5.93282474 35.3549341,5.59393814 35.043034,5.07319588 C34.5674009,5.64070103 34.6094872,6.48705155 34.9208107,6.98874227 C35.4719686,7.87723711 37.1554216,9.36845361 38.2813749,10.5346392 C40.2375242,9.79451546 42.0697207,7.62263918 41.6748011,4.86536082 C41.3115903,2.16235052 39.2706918,0.130762887 36.2560426,0.0551340206 L36.2560426,0.0551340206 C32.9300699,0.0551340206 30.2244381,2.76507216 30.2244381,6.09505155 C30.2244381,7.59550515 30.7779021,9.03418557 31.7822087,10.1455258 L35.295552,13.8369072 C34.4526725,13.887134 33.6115225,14.1261443 32.8326372,14.5724124 C32.8199537,14.5799175 32.8072701,14.5874227 32.7963161,14.5943505 C31.0004408,15.6716289 30.2786315,18.1183093 31.2010715,19.9894021 C31.8865597,21.4921649 33.4183866,22.3650722 34.6452318,22.0966186 C36.2987055,21.7698557 36.5160554,20.496866 36.2698792,20.0736907 C35.1865888,20.7837938 33.9268817,20.5043711 33.2961633,19.4218969 C32.6631389,18.3371134 33.0205844,16.9827216 34.1021453,16.351134 C34.2843272,16.2449072 34.477463,16.1629278 34.6705989,16.1115464 C36.2479713,15.6733608 37.6915899,16.3326598 38.5558008,17.8152165 C38.6226777,17.9295258 38.6832129,18.0432577 38.7379827,18.1569897 C38.7523959,18.1904742 38.7673855,18.2239588 38.7812221,18.2574433 C38.7979413,18.2949691 38.8135075,18.3330722 38.8290737,18.3705979 C39.2009323,19.3012371 39.3963743,20.3034639 39.3963743,21.3322474 C39.3963743,25.7227629 35.8294141,29.2952165 31.444365,29.2952165 C27.7961149,29.2952165 24.7163183,26.8214021 23.7835009,23.4614021 L23.4935088,21.3709278 C23.4935088,21.3582268 23.4923558,21.3455258 23.4923558,21.3322474 L23.4877436,21.3322474 L23.4808253,21.2820206 C23.4808253,19.2446598 24.2395322,17.3822268 25.4900149,15.9672165 L25.492321,15.9672165 C27.6871516,13.3236701 29.9897925,12.5841237 29.9897925,12.5841237 C28.2579114,11.0016907 27.1711618,8.72127835 27.1711618,6.18684536 L27.1711618,0.399793814 L24.8391182,0.399793814 L24.8391182,5.64474227 L24.8275877,5.64474227 C24.7780065,7.16136082 24.3594494,8.61620619 23.6359105,9.76969072 C22.7901483,11.1194639 21.5754102,11.9906392 20.1139193,12.3006598 C19.9928491,13.2861443 19.5200986,13.9136907 18.5676793,14.3738144 L18.4944606,14.2225567 L18.5659497,14.3755464 L3.29034345,21.5100619 C3.21193605,21.5475876 3.11680943,21.5903093 3.0124584,21.6370722 C1.98393781,22.0989278 0.0969715041,22.9470103 0.553002775,25.0091959 C0.842418322,24.696866 1.36013777,24.2448247 1.92686184,24.2546392 C1.92686184,24.2546392 0.433662101,26.122268 2.703441,27.6319588 C2.70517058,27.621567 2.70747668,27.6129072 2.70920625,27.6025155 L2.70920625,32.7931959 L4.12861079,32.7931959 L4.12861079,25.8255258 C4.12918732,25.8249485 4.13034037,25.8249485 4.13149342,25.8243711 L4.14763612,25.8243711 C4.80199198,27.2561237 6.34477287,26.4380619 6.34477287,26.4380619 C6.17527452,26.3797526 6.01442405,26.290268 5.87086932,26.1678763 C5.23438573,25.632701 5.15021308,24.6818557 5.68638133,24.0444948 C6.20813645,23.4221443 7.12308161,23.3286186 7.75956521,23.8216495 C8.05416948,23.4227216 8.39720185,23.0618969 8.77770835,22.7443711 C8.81057027,22.7172371 8.8434322,22.6918351 8.87629412,22.6652784 C8.94144144,22.6133196 9.00716529,22.5625155 9.07404219,22.5134433 C9.12016419,22.4793814 9.16743924,22.4453196 9.21471429,22.4124124 C9.27063722,22.3743093 9.32713667,22.3367835 9.38363612,22.3004124 C9.43840599,22.2646186 9.49317586,22.2294021 9.54909879,22.1959175 C9.60040951,22.1647423 9.65344981,22.1358763 9.70591359,22.106433 C9.76702524,22.0717938 9.82756036,22.0365773 9.88924854,22.0048247 C9.93075834,21.9834639 9.97342118,21.9644124 10.0155075,21.9436289 C10.1458022,21.8801237 10.2784029,21.8212371 10.4133098,21.7663918 C10.465197,21.7456082 10.5165077,21.7236701 10.569548,21.7040412 C10.6370015,21.6792165 10.7056079,21.656701 10.7742144,21.6341856 C10.8295608,21.6157113 10.8843307,21.5972371 10.9396771,21.5804948 C11.0100131,21.5597113 11.0809257,21.5406598 11.1518383,21.5216082 C11.2060316,21.5077526 11.260225,21.4938969 11.3149948,21.4811959 C11.3899431,21.4638763 11.4654679,21.4477113 11.5409926,21.432701 C11.5894207,21.4234639 11.6384254,21.4153814 11.68743,21.407299 C11.7716026,21.392866 11.8557753,21.3795876 11.941101,21.3686186 C11.9699272,21.3651546 11.9987535,21.3628454 12.0275797,21.3593814 C12.2570367,21.3339794 12.4887997,21.3172371 12.7234454,21.3172371 C16.1186011,21.3172371 18.8807323,24.0831753 18.8807323,27.4830103 C18.8807323,29.7085773 17.7063509,31.7147629 15.827456,32.8087835 C16.6962791,36.1283711 19.7120814,38.5773608 23.2986434,38.5773608 C24.0446667,38.5773608 24.766476,38.471134 25.4485051,38.2725361 L25.4485051,38.274268 C25.5943659,38.2321237 25.747145,38.2084536 25.9056894,38.2084536 C26.7900787,38.2084536 27.5101585,38.9075876 27.5470561,39.7856907 L27.5470561,45.0623918 C26.4164906,44.1640825 24.0827174,43.9065979 23.2640519,45.4018557 C23.8203985,45.4018557 24.5952481,45.5571546 25.1221919,46.0807835 C23.7125883,46.5668866 23.1695018,47.7844536 23.2075524,48.888866 L23.2421439,48.888866 C24.062539,48.3889072 25.0086165,48.0765773 26.0261831,48.0234639 C25.4554234,48.4760825 25.020147,49.7837113 25.8128689,50.8044124 C26.8667566,48.9598763 29.1036736,48.4108454 29.9257982,48.3941031 L29.9257982,39.8572784 L29.9257982,39.8549691 C29.9257982,38.6778144 30.8799471,37.7246598 32.0537519,37.7246598 C32.412927,37.7246598 32.7484646,37.8141443 33.0453749,37.9711753 C33.0326914,36.8136495 32.0923791,35.8789691 30.9324108,35.8789691 C30.4308341,35.8789691 29.9696141,36.0538969 29.6087094,36.3460206 L29.5942963,36.3333196 C29.9021607,35.9938557 30.0883782,35.5429691 30.0883782,35.0499381 C30.0883782,34.7087423 29.9990169,34.3871753 29.8404725,34.1094845 C29.424798,34.2468866 28.9797207,34.3196289 28.5185007,34.3196289 C26.1668552,34.3196289 24.2614401,32.4115876 24.2614401,30.056701 C24.2614401,29.5821443 24.3398475,29.1266392 24.4834022,28.6994227 C26.300609,30.4221443 28.7508403,31.4821031 31.444365,31.4821031 C32.4221514,31.4821031 33.3670759,31.3400825 34.2624192,31.0797113 C34.3765712,31.0606598 34.4924527,31.0468041 34.6117933,31.0468041 C35.7827156,31.0468041 36.7305227,31.9964948 36.7305227,33.1684536 C36.7305227,33.5281237 36.6411613,33.8658557 36.482617,34.1614433 C37.63682,34.1418144 38.5661783,33.069732 38.5661783,31.9087423 C38.5661783,30.9850309 37.9792758,30.0555464 37.1571512,29.7195464 L37.1231362,29.735134 C39.8108957,27.9079175 41.580251,24.823299 41.580251,21.3322474" id="Fill-28" fill="#CF0A2C" mask="url(#mask-2)"></path>
                    </g>
                    <path d="M14.8030287,40.0062845 C14.8030287,38.2171711 16.250683,36.7675216 18.0373339,36.7675216 C18.1774295,36.7675216 18.3146425,36.779068 18.4501258,36.7963876 C20.448938,35.9003876 21.7317061,33.9340371 21.7317061,31.7275216 C21.7317061,31.193501 21.6544518,30.6773773 21.5137797,30.1883876 C20.4253005,29.6018309 19.1823126,29.2652536 17.8586112,29.2652536 C13.5923262,29.2652536 10.1320232,32.7291711 10.1320232,37.0013361 C10.1320232,39.7799753 11.5940906,42.2156866 13.7877682,43.5793155 L10.1885227,45.2604701 L10.1867931,45.2604701 C10.4018369,43.4384495 9.23149117,42.0124701 7.71638348,41.6002639 C8.09746651,42.6024907 7.89683581,43.3986144 7.82938238,43.6064495 L7.78556648,43.6064495 C7.15830729,42.8033979 5.11971491,43.3639753 4.82626369,44.6236866 C6.0260122,44.5688412 6.78068342,45.0872742 7.22749029,46.1004701 C6.3834577,45.9399753 5.36243193,47.072099 5.60514895,48.4761402 C7.42812099,47.0738309 9.57971227,47.8278103 10.1850635,48.0287175 L10.1867931,48.0287175 L14.7136673,45.9122639 C14.7447997,45.896099 14.7776616,45.881666 14.8105235,45.8689649 C15.640143,45.5052536 16.6242712,45.8233567 17.0768433,46.6298722 C17.2227041,46.8890887 17.2953463,47.1702433 17.3045707,47.447934 C18.3930499,46.2396041 17.9116515,45.0780371 17.3864372,44.4210474 C18.2598726,44.4210474 18.8525403,43.7236454 18.8525403,43.1572948 C18.5971397,43.2213773 18.3129129,43.2450474 18.0373339,43.2450474 C16.250683,43.2450474 14.8030287,41.7953979 14.8030287,40.0062845" id="Fill-31" fill="#CF0A2C"></path>
                    <path d="M5.86931271,18.7000165 C5.22591081,19.0723876 4.80850672,20.4290887 5.22591081,21.3839753 L5.24032394,21.3891711 C5.39713874,20.9931299 5.75804338,20.6629031 6.16276393,20.4273567 L6.16852918,20.4244701 L6.16852918,25.3501608 C6.18640145,25.3420784 6.20542678,25.3334186 6.22272253,25.3259134 C6.32246135,25.2808825 6.41239925,25.2404701 6.49023013,25.2035216 L7.58735719,24.6908619 L7.58735719,19.6964701 L7.59023982,19.6953155 L7.58735719,19.6820371 L7.58735719,19.6785732 C8.36797203,19.5232742 9.17337745,19.4430268 9.99896124,19.4430268 C11.3399584,19.4430268 12.6284917,19.6589443 13.8368881,20.0526763 C14.4186018,18.4731299 15.3375827,17.1603052 16.590948,16.1205526 L8.52363378,16.1205526 L8.52190421,16.1205526 C8.30686038,15.7129649 7.98227681,15.4081402 7.59023982,15.2003052 C7.58966329,15.1997278 7.58851024,15.1991505 7.58735719,15.1985732 L7.58735719,8.87576907 C7.09961704,8.93581031 6.62513697,9.05011959 6.16852918,9.21003711 L6.16852918,14.8533361 L6.16276393,14.8533361 C5.30431821,14.8365938 4.40148007,15.1177485 3.73040498,15.6581196 C4.38706695,15.6581196 5.22591081,16.1257485 5.43518939,16.6349443 C4.48161704,16.6349443 3.25477186,17.6700784 3.39140828,19.2640577 C4.70415569,17.8403876 5.60122858,18.5706969 5.86931271,18.7000165" id="Fill-33" fill="#CF0A2C"></path>
                    <path d="M7.5875878,4.05249485 L6.16818326,4.05249485 L6.16818326,5.3451134 C6.63459198,5.45480412 7.107919,5.53793814 7.5875878,5.58758763 L7.5875878,4.05249485 Z" id="Fill-35" fill="#CF0A2C"></path>
                    <g id="Group-39" transform="translate(0.000000, 2.512379)">
                        <mask id="mask-4" fill="white">
                            <use xlink:href="#path-3"></use>
                        </mask>
                        <g id="Clip-38"></g>
                        <path d="M9.2968691,5.75472165 L9.2968691,3.72775258 C9.10949848,3.73698969 8.92328091,3.74449485 8.74225206,3.74449485 C5.48719194,3.74449485 2.35839079,2.39529897 0.113978991,0.039257732 C0.0407603171,0.603876289 -0.000172957498,1.17830928 -0.000172957498,1.76313402 C-0.000172957498,4.46556701 0.80753856,6.97748454 2.18946897,9.07661856 C3.58696556,6.96131959 5.91266739,5.70103093 8.44188254,5.70103093 C8.72265021,5.70103093 9.00860661,5.71950515 9.2968691,5.75472165" id="Fill-37" fill="#CF0A2C" mask="url(#mask-4)"></path>
                    </g>
                </g>
            </g>
        </g>
    </g>
</svg>